<?xml version="1.0" encoding="utf-8"?>
<!-- Generator: Adobe Illustrator 24.1.2, SVG Export Plug-In . SVG Version: 6.00 Build 0)  -->
<svg version="1.1" id="Layer_1" xmlns="http://www.w3.org/2000/svg" xmlns:xlink="http://www.w3.org/1999/xlink" x="0px" y="0px"
	 viewBox="0 0 376.21 111.2" style="enable-background:new 0 0 376.21 111.2;" xml:space="preserve">
<style type="text/css">
	.st0{fill:#1E1E1E;}
	.st1{fill:#FFA800;}
	.st2{fill:#757575;}
</style>
<g>
	<g>
		<g>
			<path class="st0" d="M119.67,59.86c-0.09,1.53-0.45,7.13-5.59,9.47c-2.8,1.26-6.04,1.26-9.02,1.26H84.94V6.91h19.75
				c3.79,0,7.4-0.09,10.55,2.44c3.61,2.8,3.79,6.49,3.79,10.55v5.68c0,0.18,0,2.8-0.36,4.51c-1.17,5.32-5.14,5.86-7.04,6.22
				c3.7,0.72,5.14,1.62,6.31,3.07c1.98,2.62,1.8,5.59,1.8,8.57v9.02C119.76,57.96,119.67,58.95,119.67,59.86z M107.4,21.88
				c0-1.53-0.09-1.98-0.27-2.8c-0.81-2.98-3.34-3.07-5.77-3.07h-4.69v16.06h4.24c1.62,0,2.44-0.09,3.16-0.18
				c2.26-0.45,3.34-1.8,3.34-5.68V21.88z M108.21,47.5c0-1.89,0-2.62-0.36-3.52c-0.9-2.62-3.79-2.71-6.13-2.71h-5.05v20.11h4.96
				c0.99,0,2.07,0,2.98-0.18c2.53-0.36,3.61-1.89,3.61-6.22V47.5z"/>
			<path class="st0" d="M155.96,66.44c-4.51,5.86-13.17,5.5-14.7,5.5c-4.69,0-9.56-0.99-12.99-4.6c-0.63-0.63-1.89-2.16-2.71-4.33
				c-0.9-2.26-1.17-4.78-1.17-7.04V6.91h11.72v47.35c0,1.71,0,3.43,0.63,4.96c1.17,2.62,4.15,2.71,4.87,2.71
				c0.54,0,2.07,0,3.43-0.99c2.26-1.53,1.98-4.51,1.98-6.76V6.91h11.82v49.34C158.84,60.04,158.48,63.19,155.96,66.44z"/>
			<path class="st0" d="M164.01,70.59V6.91h11.73v54.03h17.23v9.65H164.01z"/>
			<path class="st0" d="M195.76,70.59V6.91h11.73v54.03h17.23v9.65H195.76z"/>
			<path class="st0" d="M260.61,62.2c-1.44,5.14-5.68,9.74-16.51,9.74c-4.51,0-9.29-0.63-13.08-3.61c-2.07-1.62-2.89-3.34-3.34-4.33
				c-0.72-1.8-1.26-2.98-1.26-6.58v-9.29h11.64v7.4c0,2.35-0.18,5.05,2.07,6.49c0.72,0.45,1.8,0.9,3.61,0.9
				c2.07,0,3.25-0.45,4.06-1.17c1.71-1.35,1.71-4.15,1.71-8.48c0-0.81,0.18-3.7-1.26-5.86c-0.9-1.35-2.26-2.16-2.71-2.53
				l-11.09-7.49c-2.44-1.62-3.7-2.62-5.32-5.23c-1.35-2.25-2.26-4.69-2.26-10.1c0-0.9-0.09-5.41,1.53-8.75
				c3.61-7.76,14.52-7.76,15.78-7.76c1.89,0,12.09,0,15.42,8.39c0.63,1.62,0.99,2.26,0.99,5.32v6.31h-11.73v-6.49
				c0-1.89-0.72-4.6-5.23-4.6c-2.71,0-5.23,0.99-5.23,6.31c0,0.27-0.18,4.06,1.26,6.13c0.36,0.54,1.17,1.17,2.44,2.07l11.36,7.85
				c0.81,0.54,3.34,2.44,5.23,4.96c2.8,3.7,2.53,6.49,2.53,11C261.24,57.69,261.24,59.76,260.61,62.2z"/>
			<path class="st0" d="M265.15,70.59V6.91H296v9.65h-19.12v14.97h18.04v9.65h-18.04v19.57h20.02v9.83H265.15z"/>
			<path class="st0" d="M323.47,51.74v18.85h-12V50.93L298.76,6.91h12.36l6.49,32.11l6.22-32.11h12.36L323.47,51.74z"/>
			<path class="st0" d="M338.71,70.59V6.91h30.85v9.65h-19.12v14.97h18.04v9.65h-18.04v19.57h20.02v9.83H338.71z"/>
		</g>
		<g>
			<path class="st1" d="M37.61,6.02C19.56,6.02,4.88,20.7,4.88,38.75s14.68,32.73,32.73,32.73S70.35,56.8,70.35,38.75
				S55.66,6.02,37.61,6.02z M37.61,63.38c-13.58,0-24.63-11.05-24.63-24.63c0-13.58,11.05-24.63,24.63-24.63
				s24.63,11.05,24.63,24.63C62.24,52.33,51.19,63.38,37.61,63.38z"/>
			<path class="st1" d="M37.61,20.85c-9.87,0-17.9,8.03-17.9,17.9c0,9.87,8.03,17.9,17.9,17.9s17.9-8.03,17.9-17.9
				C55.52,28.88,47.49,20.85,37.61,20.85z M37.61,48.82c-5.55,0-10.07-4.51-10.07-10.07s4.52-10.07,10.07-10.07
				s10.07,4.51,10.07,10.07S43.16,48.82,37.61,48.82z"/>
			<circle class="st1" cx="37.61" cy="38.75" r="3.41"/>
		</g>
	</g>
	<g>
		<path class="st2" d="M95.33,101.03l-1.5-4.2h-5.22l-1.53,4.2h-1.94l5.22-13.71h1.9l4.99,13.71H95.33z M91.29,89.57l-2.1,5.73h4.1
			L91.29,89.57z"/>
		<path class="st2" d="M119.2,101.03h-1.79l-3.61-11.36l-3.5,11.36h-1.83l-4.21-13.71h1.92l3.24,11.36l3.48-11.36h1.79l3.61,11.36
			l3.2-11.36h1.88L119.2,101.03z"/>
		<path class="st2" d="M133.59,95.05c-0.49,0.14-1.01,0.17-2.06,0.17h-3.96v5.81h-1.77V87.32h5.92c1.07,0,1.98,0,2.89,0.58
			c1.53,0.97,1.63,2.76,1.63,3.28C136.25,92.93,135.38,94.56,133.59,95.05z M134.31,90.23c-0.23-0.64-0.76-1.07-1.4-1.24
			c-0.41-0.1-0.7-0.1-1.11-0.1h-4.23v4.7h3.83c0.51,0,0.99,0.02,1.48-0.1c1.11-0.29,1.57-1.28,1.57-2.35
			C134.44,91.01,134.44,90.62,134.31,90.23z"/>
		<path class="st2" d="M146.31,95.05c-0.49,0.14-1.01,0.17-2.06,0.17h-3.96v5.81h-1.77V87.32h5.92c1.07,0,1.98,0,2.89,0.58
			c1.53,0.97,1.63,2.76,1.63,3.28C148.97,92.93,148.1,94.56,146.31,95.05z M147.03,90.23c-0.23-0.64-0.76-1.07-1.4-1.24
			c-0.41-0.1-0.7-0.1-1.11-0.1h-4.23v4.7h3.83c0.51,0,0.99,0.02,1.48-0.1c1.11-0.29,1.57-1.28,1.57-2.35
			C147.17,91.01,147.17,90.62,147.03,90.23z"/>
		<path class="st2" d="M166,101.03l-1.5-4.2h-5.22l-1.53,4.2h-1.94l5.22-13.71h1.9l4.99,13.71H166z M161.96,89.57l-2.1,5.73h4.1
			L161.96,89.57z"/>
		<path class="st2" d="M180.49,97.67c-0.12,0.62-0.54,1.94-2,2.87c-0.56,0.35-1.57,0.84-3.19,0.84c-0.72,0-1.53-0.1-2.23-0.37
			c-1.24-0.47-2.25-1.5-2.66-2.78c-0.19-0.66-0.19-1.15-0.19-2.43v-8.49h1.83v8.24c0,0.52-0.02,1.07,0.06,1.59
			c0.04,0.31,0.19,1.22,0.89,1.88c0.33,0.31,0.72,0.52,1.15,0.66c0.49,0.14,1.03,0.14,1.18,0.14c0.33,0,1.2,0,2.04-0.54
			c1.36-0.87,1.4-2.35,1.4-3.77v-8.2h1.85v8.76C180.61,96.21,180.63,97.03,180.49,97.67z"/>
		<path class="st2" d="M193.27,101.03l-7.52-11.15l0.17,11.15h-1.73V87.32h1.73l7.42,10.99l-0.08-10.99h1.65v13.71H193.27z"/>
		<path class="st2" d="M198.73,101.03v-1.79l8.47-10.26h-7.79v-1.67h9.87v1.71l-8.43,10.35h8.62v1.65H198.73z"/>
		<path class="st2" d="M230.62,97.15c-0.35,0.89-1.53,3.13-4.23,3.92c-0.97,0.29-1.83,0.31-2.19,0.31c-2.43,0-3.81-0.97-4.54-1.65
			c-0.91-0.85-2.16-2.56-2.16-5.55c0-4.27,2.58-7.21,6.93-7.21c0.78,0,3.36,0.06,5.05,2.04c0.56,0.66,0.91,1.36,1.2,2.16l-1.84,0.37
			c-0.23-0.66-0.45-1.03-0.62-1.28c-0.49-0.68-1.65-1.83-3.81-1.83c-0.33,0-1.17,0.04-2,0.39c-2.87,1.22-2.89,4.51-2.89,5.26
			c0,3.3,1.57,4.86,2.91,5.42c0.35,0.14,1.01,0.35,2,0.35c0.23,0,0.78,0,1.4-0.17c0.54-0.16,1.83-0.68,2.58-2.1
			c0.21-0.41,0.39-0.85,0.56-1.75l1.98,0.23C230.91,96.25,230.81,96.66,230.62,97.15z"/>
		<path class="st2" d="M240.64,99.79c-0.5,0.6-1.5,1.53-3.4,1.53c-0.54,0-2.06-0.06-3.17-1.2c-0.58-0.58-1.34-1.69-1.34-3.61
			c0-1.18,0.31-2.37,1.05-3.32c0.89-1.15,2.08-1.59,3.52-1.59c0.62,0,1.28,0.12,1.83,0.35c1.07,0.45,2.62,1.75,2.58,4.53
			C241.71,96.97,241.65,98.53,240.64,99.79z M239.57,94.12c-0.14-0.25-0.35-0.52-0.56-0.7c-0.66-0.56-1.38-0.58-1.67-0.58
			c-2.93,0-2.91,3.2-2.91,3.73c0,0.45,0.06,0.8,0.08,0.93c0.1,0.66,0.56,2.6,2.74,2.58c0.43,0,1.48-0.1,2.18-1.15
			c0.58-0.87,0.62-2.29,0.62-2.49C240.06,96.19,240.06,95.01,239.57,94.12z"/>
		<path class="st2" d="M255.26,101.03v-5.36c0-0.89,0.14-1.92-0.84-2.43c-0.12-0.06-0.45-0.19-0.84-0.19
			c-0.89,0.02-1.92,0.64-2.19,1.51c-0.1,0.29-0.12,0.66-0.12,1.32v5.15h-1.52v-5.15c0-0.85,0.16-1.96-0.7-2.53
			c-0.16-0.12-0.49-0.29-0.99-0.29c-0.1,0-0.31,0-0.56,0.08c-0.62,0.16-1.38,0.64-1.61,1.28c-0.12,0.29-0.14,0.56-0.14,1.17v5.44
			h-1.46v-9.15h1.46l0.02,1.22c0.19-0.23,0.35-0.39,0.58-0.6c0.64-0.56,1.26-0.91,2.16-0.91c0.31,0,1.24,0.08,1.9,0.85
			c0.23,0.25,0.39,0.54,0.56,0.84c0.12-0.1,0.21-0.21,0.31-0.31c0.27-0.27,1.32-1.4,2.76-1.38c1.15,0,1.86,0.72,2.12,1.01
			c0.66,0.78,0.62,1.73,0.62,2.7v5.73H255.26z"/>
		<path class="st2" d="M267.79,99.79c-0.49,0.62-1.42,1.53-3.3,1.53c-0.45,0-1.63-0.04-2.64-0.89c-0.12-0.1-0.25-0.23-0.45-0.47
			v5.42h-1.51v-13.5h1.51l0.02,1.3c0.12-0.14,0.39-0.47,0.78-0.76c0.95-0.74,2.1-0.84,2.47-0.84c0.93,0,1.61,0.35,1.92,0.52
			c0.95,0.52,2.19,1.79,2.19,4.37C268.78,96.99,268.78,98.51,267.79,99.79z M266.95,94.89c-0.21-0.58-0.91-1.92-2.74-1.85
			c-0.51,0.02-1.03,0.17-1.44,0.45c-0.64,0.43-1.38,1.36-1.38,3.13c0,1.26,0.37,1.92,0.72,2.39c0.25,0.31,0.58,0.56,0.95,0.72
			c0.21,0.1,0.6,0.23,1.2,0.23c1.34,0,1.9-0.58,2.23-1.05c0.68-0.95,0.68-2.14,0.68-2.49C267.19,96.23,267.19,95.53,266.95,94.89z"
			/>
		<path class="st2" d="M278.57,101.15c-0.08,0-0.62,0-0.97-0.23c-0.16-0.12-0.27-0.29-0.31-0.35c-0.25-0.35-0.27-0.58-0.31-0.78
			c-0.43,0.47-1.36,1.5-3.13,1.5c-0.62,0-1.03-0.12-1.26-0.19c-1.09-0.37-1.84-1.24-1.84-2.43c0-0.43,0.12-1.3,0.99-1.98
			c0.93-0.7,2.54-0.95,3.71-1.03l1.4-0.1c0-0.25,0-0.5-0.02-0.76c-0.04-0.66-0.16-2.02-2.02-2.02c-0.29,0-1.52,0-1.88,1.11
			c-0.1,0.29-0.1,0.5-0.1,0.82l-1.61-0.1c0-0.17,0.04-0.5,0.16-0.89c0.29-0.87,1.15-2.12,3.36-2.12c0.27,0,0.78,0.02,1.44,0.19
			c0.37,0.1,1.59,0.47,2.04,1.71c0.17,0.49,0.19,0.95,0.19,1.96v2.99c0,0.19,0,0.41,0.02,0.6c0.02,0.21,0.04,0.7,0.68,0.7
			c0.19,0,0.29-0.04,0.47-0.08v1.3C279.09,101.13,278.82,101.15,278.57,101.15z M276.84,96.74v-0.17c-0.72,0.12-2.54,0.35-3.26,0.66
			c-0.29,0.12-1.13,0.51-1.13,1.4c0,0.68,0.5,1.36,1.73,1.36c0.84,0,2.68-0.35,2.68-2.7C276.86,97.11,276.84,96.91,276.84,96.74z"/>
		<path class="st2" d="M287.72,101.03V95.2c0-0.27,0.08-1.17-0.7-1.75c-0.23-0.17-0.66-0.41-1.38-0.41c-0.68,0-1.22,0.21-1.71,0.68
			c-0.12,0.12-0.39,0.41-0.54,0.84c-0.17,0.43-0.17,0.82-0.17,1.26v5.21h-1.55v-9.15h1.55v1.34c0.19-0.33,0.39-0.54,0.49-0.64
			c0.33-0.35,1.13-0.99,2.39-0.99c0.41,0,1.79,0.12,2.6,1.26c0.6,0.84,0.56,1.73,0.56,2.72v5.46H287.72z"/>
		<path class="st2" d="M295.52,102.7c-0.16,0.43-0.37,1.05-0.58,1.44c-0.52,1.03-1.11,1.42-2.27,1.42c-0.31,0-0.76-0.02-1.38-0.19
			v-1.4c0.21,0.06,0.5,0.16,0.99,0.16c0.14,0,0.52,0.02,0.86-0.19c0.54-0.35,0.8-1.19,0.97-1.71l0.39-1.13l-3.11-9.21h1.65
			l2.29,7.26l2.43-7.26h1.61L295.52,102.7z"/>
	</g>
</g>
</svg>
